<mxfile host="app.diagrams.net" agent="Mozilla/5.0 (Windows NT 10.0; Win64; x64) AppleWebKit/537.36 (KHTML, like Gecko) Chrome/131.0.0.0 Safari/537.36" version="26.2.13">
  <diagram name="Page-1" id="74e2e168-ea6b-b213-b513-2b3c1d86103e">
    <mxGraphModel dx="1428" dy="751" grid="1" gridSize="10" guides="1" tooltips="1" connect="1" arrows="1" fold="1" page="1" pageScale="1" pageWidth="1100" pageHeight="850" background="none" math="0" shadow="0">
      <root>
        <mxCell id="0" />
        <mxCell id="1" parent="0" />
        <mxCell id="77e6c97f196da883-1" value="无人机直播流程" style="swimlane;html=1;childLayout=stackLayout;startSize=20;rounded=0;shadow=0;labelBackgroundColor=none;strokeWidth=1;fontFamily=Verdana;fontSize=12;align=center;" parent="1" vertex="1">
          <mxGeometry x="90" y="40" width="880" height="560" as="geometry" />
        </mxCell>
        <mxCell id="77e6c97f196da883-2" value="司空平台" style="swimlane;html=1;startSize=20;" parent="77e6c97f196da883-1" vertex="1">
          <mxGeometry y="20" width="220" height="540" as="geometry" />
        </mxCell>
        <mxCell id="77e6c97f196da883-8" value="开机，上报数据" style="rounded=1;whiteSpace=wrap;html=1;shadow=0;labelBackgroundColor=none;strokeWidth=1;fontFamily=Verdana;fontSize=14;align=center;" parent="77e6c97f196da883-2" vertex="1">
          <mxGeometry x="60" y="140" width="100" height="60" as="geometry" />
        </mxCell>
        <mxCell id="77e6c97f196da883-3" value="MQTT" style="swimlane;html=1;startSize=20;" parent="77e6c97f196da883-1" vertex="1">
          <mxGeometry x="220" y="20" width="220" height="540" as="geometry" />
        </mxCell>
        <mxCell id="77e6c97f196da883-11" value="osd 数据&lt;br&gt;state 数据" style="rounded=1;whiteSpace=wrap;html=1;shadow=0;labelBackgroundColor=none;strokeWidth=1;fontFamily=Verdana;fontSize=14;align=center;" parent="77e6c97f196da883-3" vertex="1">
          <mxGeometry x="60" y="140" width="100" height="60" as="geometry" />
        </mxCell>
        <mxCell id="77e6c97f196da883-4" value="后端服务" style="swimlane;html=1;startSize=20;" parent="77e6c97f196da883-1" vertex="1">
          <mxGeometry x="440" y="20" width="220" height="540" as="geometry" />
        </mxCell>
        <mxCell id="7VHwsbd7AHJSdJhflgL7-6" value="订阅数据" style="rounded=1;whiteSpace=wrap;html=1;shadow=0;labelBackgroundColor=none;strokeWidth=1;fontFamily=Verdana;fontSize=14;align=center;" vertex="1" parent="77e6c97f196da883-4">
          <mxGeometry x="70" y="140" width="90" height="60" as="geometry" />
        </mxCell>
        <mxCell id="7VHwsbd7AHJSdJhflgL7-13" value="开启直播接口" style="rounded=1;whiteSpace=wrap;html=1;shadow=0;labelBackgroundColor=none;strokeWidth=1;fontFamily=Verdana;fontSize=14;align=center;" vertex="1" parent="77e6c97f196da883-4">
          <mxGeometry x="70" y="320" width="100" height="60" as="geometry" />
        </mxCell>
        <mxCell id="77e6c97f196da883-5" value="前端页面" style="swimlane;html=1;startSize=20;" parent="77e6c97f196da883-1" vertex="1">
          <mxGeometry x="660" y="20" width="220" height="540" as="geometry">
            <mxRectangle x="480" y="20" width="40" height="730" as="alternateBounds" />
          </mxGeometry>
        </mxCell>
        <mxCell id="7VHwsbd7AHJSdJhflgL7-8" value="接收设备状态&lt;br&gt;下发直播指令" style="rounded=1;whiteSpace=wrap;html=1;shadow=0;labelBackgroundColor=none;strokeWidth=1;fontFamily=Verdana;fontSize=14;align=center;" vertex="1" parent="77e6c97f196da883-5">
          <mxGeometry x="60" y="140" width="100" height="60" as="geometry" />
        </mxCell>
        <mxCell id="7VHwsbd7AHJSdJhflgL7-9" style="edgeStyle=orthogonalEdgeStyle;rounded=0;orthogonalLoop=1;jettySize=auto;html=1;entryX=0;entryY=0.25;entryDx=0;entryDy=0;exitX=1;exitY=0.25;exitDx=0;exitDy=0;" edge="1" parent="77e6c97f196da883-1" source="7VHwsbd7AHJSdJhflgL7-6" target="7VHwsbd7AHJSdJhflgL7-8">
          <mxGeometry relative="1" as="geometry" />
        </mxCell>
        <mxCell id="7VHwsbd7AHJSdJhflgL7-10" value="推送设备状态报文" style="edgeLabel;html=1;align=center;verticalAlign=middle;resizable=0;points=[];" vertex="1" connectable="0" parent="7VHwsbd7AHJSdJhflgL7-9">
          <mxGeometry x="0.2" y="-1" relative="1" as="geometry">
            <mxPoint x="-22" y="-1" as="offset" />
          </mxGeometry>
        </mxCell>
        <mxCell id="77e6c97f196da883-26" style="edgeStyle=orthogonalEdgeStyle;rounded=1;html=1;labelBackgroundColor=none;startArrow=none;startFill=0;startSize=5;endArrow=classicThin;endFill=1;endSize=5;jettySize=auto;orthogonalLoop=1;strokeWidth=1;fontFamily=Verdana;fontSize=14;" parent="77e6c97f196da883-1" source="77e6c97f196da883-8" target="77e6c97f196da883-11" edge="1">
          <mxGeometry relative="1" as="geometry" />
        </mxCell>
        <mxCell id="7VHwsbd7AHJSdJhflgL7-7" style="edgeStyle=orthogonalEdgeStyle;rounded=0;orthogonalLoop=1;jettySize=auto;html=1;entryX=1;entryY=0.25;entryDx=0;entryDy=0;fontSize=14;exitX=0;exitY=0.25;exitDx=0;exitDy=0;" edge="1" parent="77e6c97f196da883-1" source="7VHwsbd7AHJSdJhflgL7-6" target="77e6c97f196da883-11">
          <mxGeometry relative="1" as="geometry" />
        </mxCell>
        <mxCell id="7VHwsbd7AHJSdJhflgL7-15" value="设备状态变化" style="edgeLabel;html=1;align=center;verticalAlign=middle;resizable=0;points=[];" vertex="1" connectable="0" parent="7VHwsbd7AHJSdJhflgL7-7">
          <mxGeometry x="0.15" relative="1" as="geometry">
            <mxPoint x="5" as="offset" />
          </mxGeometry>
        </mxCell>
        <mxCell id="7VHwsbd7AHJSdJhflgL7-14" style="edgeStyle=orthogonalEdgeStyle;rounded=0;orthogonalLoop=1;jettySize=auto;html=1;exitX=0.25;exitY=1;exitDx=0;exitDy=0;entryX=1;entryY=0.25;entryDx=0;entryDy=0;" edge="1" parent="77e6c97f196da883-1" source="7VHwsbd7AHJSdJhflgL7-8" target="7VHwsbd7AHJSdJhflgL7-13">
          <mxGeometry relative="1" as="geometry" />
        </mxCell>
        <mxCell id="7VHwsbd7AHJSdJhflgL7-25" value="下发开启直播指令" style="edgeLabel;html=1;align=center;verticalAlign=middle;resizable=0;points=[];" vertex="1" connectable="0" parent="7VHwsbd7AHJSdJhflgL7-14">
          <mxGeometry x="0.1778" y="1" relative="1" as="geometry">
            <mxPoint as="offset" />
          </mxGeometry>
        </mxCell>
        <mxCell id="7VHwsbd7AHJSdJhflgL7-16" style="edgeStyle=orthogonalEdgeStyle;rounded=0;orthogonalLoop=1;jettySize=auto;html=1;exitX=0;exitY=0.75;exitDx=0;exitDy=0;entryX=1;entryY=0.75;entryDx=0;entryDy=0;" edge="1" parent="77e6c97f196da883-1" source="7VHwsbd7AHJSdJhflgL7-6" target="77e6c97f196da883-11">
          <mxGeometry relative="1" as="geometry" />
        </mxCell>
        <mxCell id="7VHwsbd7AHJSdJhflgL7-17" value="设备实时数据" style="edgeLabel;html=1;align=center;verticalAlign=middle;resizable=0;points=[];" vertex="1" connectable="0" parent="7VHwsbd7AHJSdJhflgL7-16">
          <mxGeometry x="-0.0769" y="-1" relative="1" as="geometry">
            <mxPoint x="-10" as="offset" />
          </mxGeometry>
        </mxCell>
        <mxCell id="7VHwsbd7AHJSdJhflgL7-18" style="edgeStyle=orthogonalEdgeStyle;rounded=0;orthogonalLoop=1;jettySize=auto;html=1;exitX=1;exitY=0.75;exitDx=0;exitDy=0;entryX=0;entryY=0.75;entryDx=0;entryDy=0;" edge="1" parent="77e6c97f196da883-1" source="7VHwsbd7AHJSdJhflgL7-6" target="7VHwsbd7AHJSdJhflgL7-8">
          <mxGeometry relative="1" as="geometry" />
        </mxCell>
        <mxCell id="7VHwsbd7AHJSdJhflgL7-19" value="推送设备位置数据" style="edgeLabel;html=1;align=center;verticalAlign=middle;resizable=0;points=[];" vertex="1" connectable="0" parent="7VHwsbd7AHJSdJhflgL7-18">
          <mxGeometry x="-0.0667" relative="1" as="geometry">
            <mxPoint x="-6" as="offset" />
          </mxGeometry>
        </mxCell>
        <mxCell id="7VHwsbd7AHJSdJhflgL7-20" style="edgeStyle=orthogonalEdgeStyle;rounded=0;orthogonalLoop=1;jettySize=auto;html=1;entryX=0.75;entryY=1;entryDx=0;entryDy=0;exitX=0;exitY=0.25;exitDx=0;exitDy=0;" edge="1" parent="77e6c97f196da883-1" source="7VHwsbd7AHJSdJhflgL7-13" target="77e6c97f196da883-8">
          <mxGeometry relative="1" as="geometry" />
        </mxCell>
        <mxCell id="7VHwsbd7AHJSdJhflgL7-21" style="edgeStyle=orthogonalEdgeStyle;rounded=0;orthogonalLoop=1;jettySize=auto;html=1;exitX=0.25;exitY=1;exitDx=0;exitDy=0;entryX=0;entryY=0.75;entryDx=0;entryDy=0;dashed=1;" edge="1" parent="77e6c97f196da883-1" source="77e6c97f196da883-8" target="7VHwsbd7AHJSdJhflgL7-13">
          <mxGeometry relative="1" as="geometry" />
        </mxCell>
        <mxCell id="7VHwsbd7AHJSdJhflgL7-22" value="响应直播地址" style="edgeLabel;html=1;align=center;verticalAlign=middle;resizable=0;points=[];" vertex="1" connectable="0" parent="7VHwsbd7AHJSdJhflgL7-21">
          <mxGeometry x="0.2339" relative="1" as="geometry">
            <mxPoint as="offset" />
          </mxGeometry>
        </mxCell>
        <mxCell id="7VHwsbd7AHJSdJhflgL7-23" style="edgeStyle=orthogonalEdgeStyle;rounded=0;orthogonalLoop=1;jettySize=auto;html=1;exitX=1;exitY=0.75;exitDx=0;exitDy=0;entryX=0.75;entryY=1;entryDx=0;entryDy=0;dashed=1;" edge="1" parent="77e6c97f196da883-1" source="7VHwsbd7AHJSdJhflgL7-13" target="7VHwsbd7AHJSdJhflgL7-8">
          <mxGeometry relative="1" as="geometry" />
        </mxCell>
        <mxCell id="7VHwsbd7AHJSdJhflgL7-24" value="响应直播地址" style="edgeLabel;html=1;align=center;verticalAlign=middle;resizable=0;points=[];" vertex="1" connectable="0" parent="7VHwsbd7AHJSdJhflgL7-23">
          <mxGeometry x="-0.3371" y="2" relative="1" as="geometry">
            <mxPoint as="offset" />
          </mxGeometry>
        </mxCell>
      </root>
    </mxGraphModel>
  </diagram>
</mxfile>
